# xmcd CD database file
#
# Track frame offsets:
#	150
#	12765
#	36310
#	62265
#	91805
#	120838
#	145538
#	177530
#	198328
#	229115
#	248213
#
# Disc length: 3704 seconds
#
# Revision: 0
# Processed by: cddbd v1.5PL3 Copyright (c) Steve Scherf et al.
# Submitted via: CDex 1.60beta1
#
DISCID=820e760b
DTITLE=George Lewis - George Lewis' Ragtime Band of New Orleans: The Oxford Series, Vol. 2
DYEAR=1994
DGENRE=Jazz
TTITLE0=Intro
TTITLE1=South
TTITLE2=Hindustan
TTITLE3=Bourbon St. Parade
TTITLE4=When The Saints
TTITLE5=High Society
TTITLE6=Ice Cream
TTITLE7=Tishomingo Blues
TTITLE8=Panama
TTITLE9=Darktown Strutters' Ball
TTITLE10=Milneberg Joys
EXTD=YEAR: 1994
EXTT0=
EXTT1=
EXTT2=
EXTT3=
EXTT4=
EXTT5=
EXTT6=
EXTT7=
EXTT8=
EXTT9=
EXTT10=
PLAYORDER=
